HIERARCHY
ROOT reference
{
  OFFSET -65.3212 -1.93545 -120.338
  CHANNELS 6 Xposition Yposition Zposition Zrotation Xrotation Yrotation
  JOINT Hips
  {
    OFFSET 0 78.7191 0
    CHANNELS 3 Zrotation Xrotation Yrotation
    JOINT Chest
    {
      OFFSET 0 8.7983 -4.7612
      CHANNELS 3 Zrotation Xrotation Yrotation
      JOINT Chest2
      {
        OFFSET 0 8.0291 0.4195
        CHANNELS 3 Zrotation Xrotation Yrotation
        JOINT Chest3
        {
          OFFSET 0 9.9351 -2.2114
          CHANNELS 3 Zrotation Xrotation Yrotation
          JOINT Neck
          {
            OFFSET 0 22.3885 -0.4656
            CHANNELS 3 Zrotation Xrotation Yrotation
            JOINT Head
            {
              OFFSET -0.0001 12.643 3.4389
              CHANNELS 3 Zrotation Xrotation Yrotation
              End Site
              {
                OFFSET 0.0001 17.6655 0.5274
              }
            }
          }
          JOINT LeftCollar
          {
            OFFSET 2.2603 21.606 7.4023
            CHANNELS 3 Zrotation Xrotation Yrotation
            JOINT LeftShoulder
            {
              OFFSET 13.5163 -1.1332 -5.0146
              CHANNELS 3 Zrotation Xrotation Yrotation
              JOINT LeftElbow
              {
                OFFSET -0.0995 -28.05 -0.2431
                CHANNELS 3 Zrotation Xrotation Yrotation
                JOINT LeftWrist
                {
                  OFFSET 0.0679 -23.3996 -0.1402
                  CHANNELS 3 Zrotation Xrotation Yrotation
                  JOINT LeftFinger1
                  {
                    OFFSET 0.7932 -9.069 2.5189
                    CHANNELS 3 Zrotation Xrotation Yrotation
                    JOINT LeftFinger11
                    {
                      OFFSET -0.8272 -3.3923 0.5977
                      CHANNELS 3 Zrotation Xrotation Yrotation
                      JOINT LeftFinger12
                      {
                        OFFSET -0.5649 -2.3158 0.4082
                        CHANNELS 3 Zrotation Xrotation Yrotation
                        End Site
                        {
                          OFFSET -0.4919 -1.6479 0.2673
                        }
                      }
                    }
                  }
                  JOINT LeftFinger2
                  {
                    OFFSET 0.9159 -9.2044 0.2193
                    CHANNELS 3 Zrotation Xrotation Yrotation
                    JOINT LeftFinger21
                    {
                      OFFSET 0.0117 -4.1944 -0.0248
                      CHANNELS 3 Zrotation Xrotation Yrotation
                      JOINT LeftFinger22
                      {
                        OFFSET 0.0071 -2.3249 -0.0142
                        CHANNELS 3 Zrotation Xrotation Yrotation
                        End Site
                        {
                          OFFSET -0.1475 -2.0882 0.0028
                        }
                      }
                    }
                  }
                  JOINT LeftFinger3
                  {
                    OFFSET 0.6113 -8.7231 -2.0637
                    CHANNELS 3 Zrotation Xrotation Yrotation
                    JOINT LeftFinger31
                    {
                      OFFSET -0.1927 -3.8059 -0.2383
                      CHANNELS 3 Zrotation Xrotation Yrotation
                      JOINT LeftFinger32
                      {
                        OFFSET -0.1091 -2.1688 -0.1362
                        CHANNELS 3 Zrotation Xrotation Yrotation
                        End Site
                        {
                          OFFSET -0.2358 -1.9176 -0.0906
                        }
                      }
                    }
                  }
                  JOINT LeftFinger4
                  {
                    OFFSET -0.6151 -8.0947 -3.5641
                    CHANNELS 3 Zrotation Xrotation Yrotation
                    JOINT LeftFinger41
                    {
                      OFFSET -0.4882 -2.341 -0.6462
                      CHANNELS 3 Zrotation Xrotation Yrotation
                      JOINT LeftFinger42
                      {
                        OFFSET -0.3575 -1.7167 -0.4742
                        CHANNELS 3 Zrotation Xrotation Yrotation
                        End Site
                        {
                          OFFSET -0.4187 -1.5237 -0.3496
                        }
                      }
                    }
                  }
                  JOINT LeftFinger0
                  {
                    OFFSET -1.42 -1.8761 1.4223
                    CHANNELS 3 Zrotation Xrotation Yrotation
                    JOINT LeftFinger01
                    {
                      OFFSET -1.1471 -3.4929 2.6334
                      CHANNELS 3 Zrotation Xrotation Yrotation
                      JOINT LeftFinger02
                      {
                        OFFSET -0.823 -2.3 1.6571
                        CHANNELS 3 Zrotation Xrotation Yrotation
                        End Site
                        {
                          OFFSET -0.5822 -1.6914 1.1582
                        }
                      }
                    }
                  }
                }
              }
            }
          }
          JOINT RightCollar
          {
            OFFSET -2.2603 21.606 7.4023
            CHANNELS 3 Zrotation Xrotation Yrotation
            JOINT RightShoulder
            {
              OFFSET -13.5187 -1.1334 -5.0155
              CHANNELS 3 Zrotation Xrotation Yrotation
              JOINT RightElbow
              {
                OFFSET 0.0994 -28.0499 -0.2431
                CHANNELS 3 Zrotation Xrotation Yrotation
                JOINT RightWrist
                {
                  OFFSET -0.0679 -23.3996 -0.1402
                  CHANNELS 3 Zrotation Xrotation Yrotation
                  JOINT RightFinger1
                  {
                    OFFSET -0.7932 -9.0691 2.5189
                    CHANNELS 3 Zrotation Xrotation Yrotation
                    JOINT RightFinger11
                    {
                      OFFSET 0.8272 -3.3923 0.5977
                      CHANNELS 3 Zrotation Xrotation Yrotation
                      JOINT RightFinger12
                      {
                        OFFSET 0.565 -2.3158 0.4082
                        CHANNELS 3 Zrotation Xrotation Yrotation
                        End Site
                        {
                          OFFSET 0.4919 -1.6479 0.2673
                        }
                      }
                    }
                  }
                  JOINT RightFinger2
                  {
                    OFFSET -0.916 -9.2044 0.2193
                    CHANNELS 3 Zrotation Xrotation Yrotation
                    JOINT RightFinger21
                    {
                      OFFSET -0.0117 -4.1944 -0.0248
                      CHANNELS 3 Zrotation Xrotation Yrotation
                      JOINT RightFinger22
                      {
                        OFFSET -0.0071 -2.3249 -0.0142
                        CHANNELS 3 Zrotation Xrotation Yrotation
                        End Site
                        {
                          OFFSET 0.1475 -2.0882 0.0028
                        }
                      }
                    }
                  }
                  JOINT RightFinger3
                  {
                    OFFSET -0.6113 -8.7231 -2.0637
                    CHANNELS 3 Zrotation Xrotation Yrotation
                    JOINT RightFinger31
                    {
                      OFFSET 0.1927 -3.8059 -0.2383
                      CHANNELS 3 Zrotation Xrotation Yrotation
                      JOINT RightFinger32
                      {
                        OFFSET 0.1091 -2.1688 -0.1362
                        CHANNELS 3 Zrotation Xrotation Yrotation
                        End Site
                        {
                          OFFSET 0.2358 -1.9176 -0.0906
                        }
                      }
                    }
                  }
                  JOINT RightFinger4
                  {
                    OFFSET 0.6151 -8.0947 -3.564
                    CHANNELS 3 Zrotation Xrotation Yrotation
                    JOINT RightFinger41
                    {
                      OFFSET 0.4882 -2.341 -0.6462
                      CHANNELS 3 Zrotation Xrotation Yrotation
                      JOINT RightFinger42
                      {
                        OFFSET 0.3574 -1.7166 -0.4742
                        CHANNELS 3 Zrotation Xrotation Yrotation
                        End Site
                        {
                          OFFSET 0.4187 -1.5237 -0.3496
                        }
                      }
                    }
                  }
                  JOINT RightFinger0
                  {
                    OFFSET 1.4199 -1.8761 1.4221
                    CHANNELS 3 Zrotation Xrotation Yrotation
                    JOINT RightFinger01
                    {
                      OFFSET 1.1472 -3.4929 2.6336
                      CHANNELS 3 Zrotation Xrotation Yrotation
                      JOINT RightFinger02
                      {
                        OFFSET 0.8229 -2.3 1.6571
                        CHANNELS 3 Zrotation Xrotation Yrotation
                        End Site
                        {
                          OFFSET 0.5822 -1.6914 1.1582
                        }
                      }
                    }
                  }
                }
              }
            }
          }
        }
      }
    }
    JOINT RightHip
    {
      OFFSET -9.412 3.9771 -0.7758
      CHANNELS 3 Zrotation Xrotation Yrotation
      JOINT RightKnee
      {
        OFFSET -0.7531 -40.938 0
        CHANNELS 3 Zrotation Xrotation Yrotation
        JOINT RightAnkle
        {
          OFFSET 0 -40.1986 0
          CHANNELS 3 Zrotation Xrotation Yrotation
          JOINT RightToe
          {
            OFFSET 0 -4.4182 9.239
            CHANNELS 3 Zrotation Xrotation Yrotation
            End Site
            {
              OFFSET 0 0 6.1981
            }
          }
        }
      }
    }
    JOINT LeftHip
    {
      OFFSET 9.4119 3.9773 -0.7758
      CHANNELS 3 Zrotation Xrotation Yrotation
      JOINT LeftKnee
      {
        OFFSET 0.7532 -40.9383 0
        CHANNELS 3 Zrotation Xrotation Yrotation
        JOINT LeftAnkle
        {
          OFFSET 0 -40.1986 0
          CHANNELS 3 Zrotation Xrotation Yrotation
          JOINT LeftToe
          {
            OFFSET 0 -4.4182 9.239
            CHANNELS 3 Zrotation Xrotation Yrotation
            End Site
            {
              OFFSET 0 0 6.1981
            }
          }
        }
      }
    }
  }
}
MOTION
Frames:	4
Frame Time:	0.0333333
-38.2961 -3.48362 -49.635 0 0 -0 -0.635286 6.14509 101.884 -0.000413347 -2.15289 1.0217 0.0376433 -4.30544 2.0455 0.037647 -4.30544 2.04554 -0.57056 13.6138 -8.57517 -6.33081 -1.10016 -8.80723 0.496443 0.856078 -4.26276 4.06424 31.6631 27.2212 -10.375 -22.1194 -10.323 -12.0605 1.40879 41.7644 -2.55609e-005 0.000185572 0.000135049 0.000320109 -4.19406e-005 -0.000251873 -0.000177825 6.15152e-005 3.12277e-005 2.03447 -1.26685 0.222408 -0.167766 -0.876192 0.196074 2.03554 -1.26784 0.222658 2.14058 -6.28968 2.6372 -0.361961 -2.21292 0.750571 4.51008 -3.05778 0.715163 11.4186 -7.3566 2.60842 -0.0648482 -1.73711 1.50185 2.78869 -1.86625 0.506469 0.00024336 1.45409e-006 -0.000396791 -0.000160609 2.84265e-005 0.000285519 -0.000177389 5.25341e-005 -1.10392e-005 -44.4584 -1.12579 12.6009 -93.0668 9.49199 -52.0614 -3.50125 -25.8486 -35.2702 5.23025 6.57302 -23.1094 -26.3168 9.86705 9.08438 39.4242 12.0338 -4.97718 38.7304 11.8651 -4.82266 -2.2335 10.2523 5.03865 52.3753 15.6205 -6.40197 44.0892 13.716 -4.4863 15.0073 7.58701 -5.70559 37.2883 13.8496 -2.53194 38.5715 14.2637 -2.7736 23.054 4.37546 -8.90257 30.7535 11.5468 -0.514456 30.685 11.5224 -0.506247 7.91154 0.880266 52.6243 -0.671215 1.5291 0.489013 -4.02432 8.62951 3.04558 -4.11323 -16.7722 45.575 14.5166 47.0344 -7.70968 -14.3302 -3.17956 -22.4286 25.0856 -3.03599 -8.13338 -22.702 3.2962 -2.02677 0.441283 0.0195569 0.618292 8.83512 -2.42799 -5.44394 5.77034 5.01455 -0.811566 
-37.4659 -3.32165 -49.3962 0 0 -0 0.160878 5.70579 102.668 0.0516826 -1.9309 0.814627 0.130949 -3.86089 1.63222 0.130952 -3.86088 1.63224 -0.715101 13.9452 -9.2072 -5.60058 -1.01924 -9.31151 -0.0355623 0.858757 -4.46563 5.78759 32.2323 28.2806 -9.83845 -21.8694 -8.10109 -12.9423 2.18164 39.9058 0.0489404 -0.0647491 0.00705329 0.00197571 -0.0254273 -0.00817016 0.0583479 -0.0363345 0.00318012 2.08421 -1.29766 0.22843 -0.17147 -0.897696 0.200406 2.09265 -1.31243 0.242423 2.18846 -6.30105 2.63516 -0.364747 -2.23158 0.755945 4.54769 -3.08293 0.722111 11.4502 -7.32144 2.58791 -0.0653096 -1.75502 1.51613 2.8337 -1.89607 0.515376 -0.0303822 -0.0406776 0.00800364 -0.000186085 1.95312e-005 0.000280275 -0.0189266 -0.0248235 0.00518318 -44.295 -1.08255 11.2055 -92.3296 9.01842 -52.6954 -4.43849 -26.7899 -37.9487 5.52056 7.37094 -20.6809 -26.3079 9.86793 9.08341 39.4269 12.0344 -4.97778 38.733 11.8658 -4.82324 -2.22912 10.2491 5.03558 52.3753 15.6205 -6.40196 44.0752 13.7126 -4.48329 15.0056 7.58651 -5.70546 37.2831 13.8479 -2.53097 38.5664 14.262 -2.7726 23.0439 4.37537 -8.90092 30.7526 11.5464 -0.514351 30.6812 11.5211 -0.505781 7.9122 0.875225 52.6233 -0.669737 1.52576 0.487919 -4.02575 8.63234 3.0467 -1.68683 -19.8341 45.4828 23.5653 57.1183 -15.8957 -13.0823 -3.76116 -19.4045 24.2871 -3.43154 -7.59651 -21.7697 4.77115 -1.52979 0.414613 -1.3243e-005 0.5071 8.29537 -2.26848 -6.07869 5.83623 4.49147 -0.758183 
-36.1398 -3.01768 -49.1008 0 0 -0 0.871973 5.51718 103.309 -0.024567 -1.66612 0.546279 -0.033251 -3.33239 1.09258 -0.033253 -3.3324 1.09257 -0.901218 14.2402 -9.93009 -4.45584 -0.85006 -10.0369 -0.31729 0.871183 -5.39635 7.75098 33.1582 29.1638 -9.22128 -21.5584 -6.84251 -14.3887 2.95216 39.967 0.190659 -0.252866 0.0271299 -0.00311802 -0.0974491 -0.033417 0.22793 -0.141794 0.012544 2.2283 -1.38692 0.245938 -0.18226 -0.960124 0.212761 2.22929 -1.38792 0.24618 2.32722 -6.33402 2.62938 -0.372845 -2.28575 0.771386 4.65688 -3.15574 0.742347 11.5511 -7.23235 2.53775 -0.0664377 -1.80702 1.55747 2.96417 -1.98237 0.541243 -0.119231 -0.158513 0.0324775 -0.000175424 4.50661e-005 0.00031947 -0.0732467 -0.0968965 0.0201074 -43.9483 -1.05265 10.364 -90.3732 9.61464 -53.5982 -6.72146 -29.5841 -43.701 5.32418 9.58289 -15.8159 -26.2989 9.86879 9.08246 39.4295 12.0351 -4.97839 38.7357 11.8664 -4.82385 -2.22474 10.2458 5.03254 52.3753 15.6205 -6.40195 44.0611 13.7091 -4.48025 15.0038 7.58604 -5.70531 37.2778 13.8462 -2.52997 38.5612 14.2604 -2.77162 23.0337 4.37531 -8.89928 30.7518 11.5462 -0.51425 30.6774 11.5198 -0.505328 7.91285 0.870207 52.6224 -0.668275 1.52241 0.486827 -4.02719 8.63521 3.04783 0.241573 -22.0408 44.915 33.3744 64.6956 -25.7872 -10.8185 -4.0536 -16.1258 22.2938 -3.22065 -6.85236 -20.9631 6.47864 -0.586702 0.379532 0.000153177 0.379474 7.69839 -2.22769 -6.8984 5.86969 4.22726 -0.731069 
-34.4313 -2.65356 -48.5721 0 0 -0 1.64984 5.17091 103.766 -0.1079 -1.37993 0.240004 -0.210103 -2.76032 0.477644 -0.210102 -2.76032 0.477634 -1.1557 14.5521 -11.0022 -3.10662 -0.638879 -10.5912 -0.247073 0.884045 -6.31768 9.88652 34.1592 30.7089 -8.61384 -21.1662 -3.76048 -15.4651 5.01104 37.1011 0.41761 -0.553882 0.059576 -0.0112343 -0.212624 -0.0742288 0.499433 -0.310465 0.0281664 2.45888 -1.52965 0.274415 -0.199555 -1.06005 0.232215 2.4599 -1.53064 0.274678 2.54938 -6.38668 2.62055 -0.385545 -2.3725 0.795859 4.83158 -3.27223 0.775028 11.7129 -7.08985 2.45728 -0.0681762 -1.89035 1.62332 3.17303 -2.12047 0.583126 -0.261094 -0.347298 0.0706878 -0.000229392 7.4801e-005 0.000401801 -0.160154 -0.212363 0.0438673 -43.4516 -1.01014 9.21708 -87.9564 9.87354 -54.5054 -10.1683 -32.7148 -50.0585 5.01824 12.2739 -10.9777 -26.29 9.86966 9.08149 39.4322 12.0357 -4.97899 38.7383 11.8671 -4.82443 -2.22034 10.2426 5.02946 52.3753 15.6205 -6.40195 44.0471 13.7056 -4.47724 15.002 7.58555 -5.70518 37.2725 13.8445 -2.52903 38.556 14.2587 -2.77059 23.0236 4.37524 -8.89765 30.7481 11.5449 -0.513826 30.6737 11.5184 -0.504883 7.9135 0.86518 52.6215 -0.666761 1.51905 0.485728 -4.02862 8.63804 3.04896 2.02104 -24.1725 43.8918 44.9434 69.6296 -37.4915 -8.41533 -3.81299 -13.4476 19.3503 -2.94921 -5.8108 -19.7645 8.37954 -0.317653 0.341801 0.000519227 0.237741 7.11786 -2.40391 -6.9786 5.86537 4.26115 -0.734551 
